<svg width="48" height="48" viewBox="0 0 48 48" fill="none" xmlns="http://www.w3.org/2000/svg">
<path d="M10.65 39.25C9.18333 37.75 8.04167 36.0167 7.225 34.05C6.40833 32.0833 6 30.0667 6 28C6 25.5667 6.425 23.3417 7.275 21.325C8.125 19.3083 9.4 17.45 11.1 15.75C12.2667 14.5833 13.7167 13.6 15.45 12.8C17.1833 12 19.225 11.375 21.575 10.925C23.925 10.475 26.5833 10.1917 29.55 10.075C32.5167 9.95833 35.8167 10.0167 39.45 10.25C39.7167 13.85 39.8083 17.1417 39.725 20.125C39.6417 23.1083 39.375 25.7833 38.925 28.15C38.475 30.5167 37.8417 32.5917 37.025 34.375C36.2083 36.1583 35.2 37.65 34 38.85C32.3 40.55 30.4667 41.8333 28.5 42.7C26.5333 43.5667 24.4333 44 22.2 44C19.9 44 17.7917 43.6083 15.875 42.825C13.9583 42.0417 12.2167 40.85 10.65 39.25ZM15.8 39.25C16.6333 39.8167 17.6 40.25 18.7 40.55C19.8 40.85 20.9667 41 22.2 41C23.9667 41 25.6833 40.6333 27.35 39.9C29.0167 39.1667 30.5333 38.1 31.9 36.7C32.8 35.8 33.5667 34.625 34.2 33.175C34.8333 31.725 35.35 30.0083 35.75 28.025C36.15 26.0417 36.4167 23.8 36.55 21.3C36.6833 18.8 36.6833 16.05 36.55 13.05C33.4167 12.9833 30.6083 13.025 28.125 13.175C25.6417 13.325 23.45 13.6 21.55 14C19.65 14.4 18.0167 14.9083 16.65 15.525C15.2833 16.1417 14.1667 16.9 13.3 17.8C11.9 19.2333 10.8333 20.75 10.1 22.35C9.36667 23.95 9 25.5833 9 27.25C9 28.85 9.34167 30.525 10.025 32.275C10.7083 34.025 11.55 35.4333 12.55 36.5C14.3167 33.2333 16.4333 30.3 18.9 27.7C21.3667 25.1 23.9833 23.05 26.75 21.55C23.85 24.05 21.5 26.7583 19.7 29.675C17.9 32.5917 16.6 35.7833 15.8 39.25Z" fill="#34B132"/>
</svg>
